<svg xmlns="http://www.w3.org/2000/svg" xmlns:xlink="http://www.w3.org/1999/xlink" width="30.183" height="16.621" viewBox="0 0 30.183 16.621">
  <defs>
    <clipPath id="clip-path">
      <path id="Path_496" data-name="Path 496" d="M0-126.293H16.621V-96.11H0Z" transform="translate(0 126.293)" fill="#ff4646"/>
    </clipPath>
  </defs>
  <g id="Group_2058" data-name="Group 2058" transform="translate(30.183) rotate(90)">
    <g id="Group_115" data-name="Group 115" clip-path="url(#clip-path)">
      <g id="Group_114" data-name="Group 114" transform="translate(0 0)">
        <path id="Path_495" data-name="Path 495" d="M-48.055-96.11a1.522,1.522,0,0,1-1.081-.448L-62.7-110.12a1.529,1.529,0,0,1,0-2.163l13.562-13.562a1.528,1.528,0,0,1,2.162,0,1.529,1.529,0,0,1,0,2.163L-59.454-111.2l12.48,12.48a1.529,1.529,0,0,1,0,2.163,1.524,1.524,0,0,1-1.081.448" transform="translate(63.146 126.293)" fill="#ff4646"/>
      </g>
    </g>
  </g>
</svg>
